<svg width="83" height="255" viewBox="0 0 83 255" fill="none" xmlns="http://www.w3.org/2000/svg">
<g id="Hearts with Sparkle Components">
<path id="Vector" d="M41.5 245.116L39.4942 243.41C32.37 237.373 27.6667 233.392 27.6667 228.505C27.6667 224.524 31.0143 221.395 35.275 221.395C37.682 221.395 39.9922 222.442 41.5 224.097C43.0078 222.442 45.318 221.395 47.725 221.395C51.9857 221.395 55.3333 224.524 55.3333 228.505C55.3333 233.392 50.63 237.373 43.5058 243.423L41.5 245.116Z" fill="#FF0000"/>
<path id="Vector_2" d="M41.5 245.116L39.4942 243.41C32.37 237.373 27.6667 233.392 27.6667 228.505C27.6667 224.524 31.0143 221.395 35.275 221.395C37.682 221.395 39.9922 222.442 41.5 224.097C43.0078 222.442 45.318 221.395 47.725 221.395C51.9857 221.395 55.3333 224.524 55.3333 228.505C55.3333 233.392 50.63 237.373 43.5058 243.423L41.5 245.116Z" fill="#FF0000"/>
<path id="Vector_3" d="M41.5 245.116L39.4942 243.41C32.37 237.373 27.6667 233.392 27.6667 228.505C27.6667 224.524 31.0143 221.395 35.275 221.395C37.682 221.395 39.9922 222.442 41.5 224.097C43.0078 222.442 45.318 221.395 47.725 221.395C51.9857 221.395 55.3333 224.524 55.3333 228.505C55.3333 233.392 50.63 237.373 43.5058 243.423L41.5 245.116Z" fill="#FF0000"/>
<path id="Vector_4" d="M41.5 245.116L39.4942 243.41C32.37 237.373 27.6667 233.392 27.6667 228.505C27.6667 224.524 31.0143 221.395 35.275 221.395C37.682 221.395 39.9922 222.442 41.5 224.097C43.0078 222.442 45.318 221.395 47.725 221.395C51.9857 221.395 55.3333 224.524 55.3333 228.505C55.3333 233.392 50.63 237.373 43.5058 243.423L41.5 245.116Z" fill="#FF0000"/>
<path id="Vector_5" d="M41.5 245.116L39.4942 243.41C32.37 237.373 27.6667 233.392 27.6667 228.505C27.6667 224.524 31.0143 221.395 35.275 221.395C37.682 221.395 39.9922 222.442 41.5 224.097C43.0078 222.442 45.318 221.395 47.725 221.395C51.9857 221.395 55.3333 224.524 55.3333 228.505C55.3333 233.392 50.63 237.373 43.5058 243.423L41.5 245.116Z" fill="#FF0000"/>
<path id="Vector_6" d="M41.5 245.116L39.4942 243.41C32.37 237.373 27.6667 233.392 27.6667 228.505C27.6667 224.524 31.0143 221.395 35.275 221.395C37.682 221.395 39.9922 222.442 41.5 224.097C43.0078 222.442 45.318 221.395 47.725 221.395C51.9857 221.395 55.3333 224.524 55.3333 228.505C55.3333 233.392 50.63 237.373 43.5058 243.423L41.5 245.116Z" fill="#FF0000"/>
<path id="Vector_7" d="M41.5 245.116L39.4942 243.41C32.37 237.373 27.6667 233.392 27.6667 228.505C27.6667 224.524 31.0143 221.395 35.275 221.395C37.682 221.395 39.9922 222.442 41.5 224.097C43.0078 222.442 45.318 221.395 47.725 221.395C51.9857 221.395 55.3333 224.524 55.3333 228.505C55.3333 233.392 50.63 237.373 43.5058 243.423L41.5 245.116Z" fill="#FF0000"/>
<path id="Vector_8" d="M41.5 245.116L39.4942 243.41C32.37 237.373 27.6667 233.392 27.6667 228.505C27.6667 224.524 31.0143 221.395 35.275 221.395C37.682 221.395 39.9922 222.442 41.5 224.097C43.0078 222.442 45.318 221.395 47.725 221.395C51.9857 221.395 55.3333 224.524 55.3333 228.505C55.3333 233.392 50.63 237.373 43.5058 243.423L41.5 245.116Z" fill="#FF0000"/>
<path id="Vector_9" d="M41.5 245.116L39.4942 243.41C32.37 237.373 27.6667 233.392 27.6667 228.505C27.6667 224.524 31.0143 221.395 35.275 221.395C37.682 221.395 39.9922 222.442 41.5 224.097C43.0078 222.442 45.318 221.395 47.725 221.395C51.9857 221.395 55.3333 224.524 55.3333 228.505C55.3333 233.392 50.63 237.373 43.5058 243.423L41.5 245.116Z" fill="#FF0000"/>
<path id="Vector_10" d="M41.5 245.116L39.4942 243.41C32.37 237.373 27.6667 233.392 27.6667 228.505C27.6667 224.524 31.0143 221.395 35.275 221.395C37.682 221.395 39.9922 222.442 41.5 224.097C43.0078 222.442 45.318 221.395 47.725 221.395C51.9857 221.395 55.3333 224.524 55.3333 228.505C55.3333 233.392 50.63 237.373 43.5058 243.423L41.5 245.116Z" fill="#FF0000"/>
<path id="Vector_11" d="M47.4286 232.339C44.6145 232.913 42.9808 234.558 42.5065 237.346C42.0112 234.531 40.3723 232.876 37.5476 232.339C40.3775 231.79 42.0164 230.13 42.5013 227.326C42.9808 230.093 44.5987 231.759 47.4286 232.339Z" fill="#FFE600"/>
<path id="Vector_12" d="M47.4286 232.339C44.6145 232.913 42.9808 234.558 42.5065 237.346C42.0112 234.531 40.3723 232.876 37.5476 232.339C40.3775 231.79 42.0164 230.13 42.5013 227.326C42.9808 230.093 44.5987 231.759 47.4286 232.339Z" fill="#FFE600"/>
<path id="Vector_13" d="M47.4286 232.339C44.6145 232.913 42.9808 234.558 42.5065 237.346C42.0112 234.531 40.3723 232.876 37.5476 232.339C40.3775 231.79 42.0164 230.13 42.5013 227.326C42.9808 230.093 44.5987 231.759 47.4286 232.339Z" fill="#FFE600"/>
<path id="Vector_14" d="M47.4286 232.339C44.6145 232.913 42.9808 234.558 42.5065 237.346C42.0112 234.531 40.3723 232.876 37.5476 232.339C40.3775 231.79 42.0164 230.13 42.5013 227.326C42.9808 230.093 44.5987 231.759 47.4286 232.339Z" fill="#FFE600"/>
<path id="1" d="M41.5 245.116L39.4942 243.41C32.37 237.373 27.6667 233.392 27.6667 228.505C27.6667 224.524 31.0143 221.395 35.275 221.395C37.682 221.395 39.9922 222.442 41.5 224.097C43.0078 222.442 45.318 221.395 47.725 221.395C51.9857 221.395 55.3333 224.524 55.3333 228.505C55.3333 233.392 50.63 237.373 43.5058 243.423L41.5 245.116Z" fill="#FF0000"/>
</g>
</svg>
